<svg width="30" height="30" viewBox="0 0 30 30" fill="none" xmlns="http://www.w3.org/2000/svg">
<path fill-rule="evenodd" clip-rule="evenodd" d="M0.333374 2.78398C0.333374 2.13403 0.591569 1.51069 1.05116 1.0511C1.51075 0.591511 2.13408 0.333316 2.78404 0.333316H27.2134C27.5355 0.33279 27.8545 0.3958 28.1522 0.518739C28.4499 0.641677 28.7205 0.822129 28.9484 1.04976C29.1763 1.2774 29.357 1.54775 29.4803 1.84533C29.6035 2.14291 29.6669 2.46188 29.6667 2.78398V27.2133C29.6671 27.5355 29.6039 27.8545 29.4808 28.1523C29.3577 28.45 29.1771 28.7205 28.9494 28.9484C28.7217 29.1763 28.4512 29.357 28.1536 29.4802C27.8559 29.6035 27.5369 29.6668 27.2147 29.6666H2.78404C2.4621 29.6666 2.14332 29.6032 1.8459 29.48C1.54849 29.3567 1.27827 29.1761 1.05069 28.9484C0.823104 28.7207 0.642617 28.4504 0.519537 28.1529C0.396458 27.8554 0.333199 27.5366 0.333374 27.2146V2.78398ZM11.944 11.5173H15.916V13.512C16.4894 12.3653 17.956 11.3333 20.16 11.3333C24.3854 11.3333 25.3867 13.6173 25.3867 17.808V25.5706H21.1107V18.7626C21.1107 16.376 20.5374 15.0293 19.0814 15.0293C17.0614 15.0293 16.2214 16.4813 16.2214 18.7626V25.5706H11.944V11.5173ZM4.61071 25.388H8.88804V11.3333H4.61071V25.3867V25.388ZM9.50004 6.74932C9.50811 7.11555 9.44294 7.4797 9.30836 7.8204C9.17378 8.16111 8.97251 8.4715 8.71635 8.73336C8.46019 8.99522 8.15431 9.20328 7.81665 9.34533C7.47899 9.48737 7.11636 9.56054 6.75004 9.56054C6.38372 9.56054 6.02109 9.48737 5.68343 9.34533C5.34578 9.20328 5.03989 8.99522 4.78373 8.73336C4.52757 8.4715 4.3263 8.16111 4.19172 7.8204C4.05714 7.4797 3.99198 7.11555 4.00004 6.74932C4.01587 6.03046 4.31255 5.34637 4.82656 4.84356C5.34056 4.34076 6.03101 4.05921 6.75004 4.05921C7.46908 4.05921 8.15953 4.34076 8.67353 4.84356C9.18753 5.34637 9.48421 6.03046 9.50004 6.74932Z" fill="white"/>
</svg>
