<svg width="31" height="26" viewBox="0 0 31 26" fill="none" xmlns="http://www.w3.org/2000/svg">
<path d="M30.5241 3.58269C29.4107 4.07602 28.2147 4.40935 26.9574 4.56002C28.2547 3.78374 29.2253 2.56198 29.6881 1.12269C28.4692 1.84667 27.1352 2.35628 25.7441 2.62935C24.8086 1.63051 23.5695 0.968456 22.2192 0.745987C20.8688 0.523517 19.4829 0.753077 18.2764 1.39902C17.0699 2.04497 16.1104 3.07117 15.5469 4.31829C14.9834 5.56542 14.8474 6.96369 15.1601 8.29602C12.6903 8.17202 10.2742 7.53009 8.06862 6.41189C5.86302 5.2937 3.91718 3.72424 2.35739 1.80535C1.82406 2.72535 1.51739 3.79202 1.51739 4.92802C1.51679 5.95068 1.76863 6.95768 2.25056 7.85966C2.73249 8.76165 3.4296 9.53074 4.28006 10.0987C3.29376 10.0673 2.32922 9.8008 1.46672 9.32135V9.40135C1.46662 10.8357 1.96277 12.2259 2.87097 13.336C3.77917 14.4462 5.04349 15.2079 6.44939 15.492C5.53443 15.7396 4.57517 15.7761 3.64406 15.5987C4.04072 16.8328 4.81338 17.9121 5.85388 18.6853C6.89438 19.4585 8.15061 19.8869 9.44672 19.9107C7.2465 21.6379 4.52924 22.5748 1.73206 22.5707C1.23656 22.5708 0.741491 22.5419 0.24939 22.484C3.08869 24.3096 6.39384 25.2784 9.76939 25.2747C21.1961 25.2747 27.4427 15.8107 27.4427 7.60269C27.4427 7.33602 27.4361 7.06669 27.4241 6.80002C28.6391 5.92132 29.6879 4.83322 30.5214 3.58669L30.5241 3.58269Z" fill="white"/>
</svg>
