<svg width="40" height="40" viewBox="0 0 40 40" fill="none" xmlns="http://www.w3.org/2000/svg">
<g clip-path="url(#clip0_34_90)">
<path d="M19.1792 40H20.8448C29.8864 40 34.408 40 37.216 37.192C40.024 34.384 40 29.864 40 20.8448V19.1552C40 10.1376 40 5.61601 37.216 2.80801C34.432 7.93457e-06 29.8864 0 20.8448 0H19.1792C10.136 0 5.616 7.93457e-06 2.808 2.80801C-1.83105e-06 5.61601 0 10.1344 0 19.1552V20.8448C0 29.864 -1.83105e-06 34.384 2.808 37.192C5.616 40 10.136 40 19.1792 40Z" fill="black"/>
<path d="M21.4639 28.8396C12.4447 28.8396 6.9711 22.582 6.7583 12.1836H11.3263C11.4687 19.822 14.9439 23.0636 17.6079 23.7244V12.1836H21.9871V18.774C24.5567 18.4892 27.2447 15.4908 28.1503 12.1836H32.4559C31.7663 16.2524 28.8399 19.2508 26.7695 20.4876C28.8399 21.4876 32.1711 24.1052 33.4559 28.8396H28.7215C27.7215 25.6748 25.2703 23.2236 21.9871 22.8908V28.8396H21.4639Z" fill="white"/>
</g>
<defs>
<clipPath id="clip0_34_90">
<rect width="40" height="40" fill="white"/>
</clipPath>
</defs>
</svg>
