<svg width="32" height="22" viewBox="0 0 32 22" fill="none" xmlns="http://www.w3.org/2000/svg">
<path d="M31.3333 3.676C31.1521 3.02964 30.7992 2.44446 30.312 1.98267C29.811 1.50667 29.197 1.16618 28.528 0.993333C26.024 0.333333 15.992 0.333333 15.992 0.333333C11.8097 0.28575 7.62854 0.495032 3.47197 0.959999C2.80289 1.14562 2.19005 1.49372 1.68797 1.97333C1.19464 2.448 0.837302 3.03333 0.650635 3.67467C0.202226 6.09032 -0.0156422 8.54313 -3.15812e-05 11C-0.0160316 13.4547 0.201302 15.9067 0.650635 18.3253C0.833302 18.964 1.1893 19.5467 1.68397 20.0173C2.17864 20.488 2.79464 20.828 3.47197 21.008C6.0093 21.6667 15.992 21.6667 15.992 21.6667C20.1795 21.7143 24.366 21.505 28.528 21.04C29.197 20.8672 29.811 20.5267 30.312 20.0507C30.799 19.589 31.1515 19.0037 31.332 18.3573C31.7921 15.9426 32.0158 13.4888 32 11.0307C32.0346 8.56214 31.8111 6.09675 31.3333 3.67467V3.676ZM12.8026 15.5653V6.436L21.1493 11.0013L12.8026 15.5653Z" fill="white"/>
</svg>
